<?xml version="1.0" encoding="iso-8859-1"?>
<!-- Generator: Adobe Illustrator 19.0.0, SVG Export Plug-In . SVG Version: 6.00 Build 0)  -->
<svg version="1.1" id="Layer_1" xmlns="http://www.w3.org/2000/svg" xmlns:xlink="http://www.w3.org/1999/xlink" x="0px" y="0px"
	 viewBox="0 0 512 512" style="enable-background:new 0 0 512 512;" xml:space="preserve">
<g transform="translate(1)">
	<g>
		<path style="fill:#7383BF;" d="M340.333,512h-12.8c-5.12,0-8.533-3.413-8.533-8.533c0-3.413,1.707-6.827,5.12-7.68
			c1.707-2.56,4.267-5.12,7.68-5.12c5.12,0,8.533,3.413,8.533,8.533V512z"/>
		<path style="fill:#7383BF;" d="M288.28,512h-9.387c-5.12,0-8.533-3.413-8.533-8.533c0-5.12,3.413-8.533,8.533-8.533h9.387
			c5.12,0,8.533,3.413,8.533,8.533C296.813,508.587,293.4,512,288.28,512z M239.64,512h-9.387c-5.12,0-8.533-3.413-8.533-8.533
			c0-5.12,3.413-8.533,8.533-8.533h9.387c5.12,0,8.533,3.413,8.533,8.533C248.173,508.587,244.76,512,239.64,512z"/>
		<path style="fill:#7383BF;" d="M191,512h-12.8v-12.8c0-5.12,3.413-8.533,8.533-8.533c3.413,0,6.827,1.707,7.68,5.12
			c2.56,1.707,5.12,4.267,5.12,7.68C199.533,508.587,196.12,512,191,512z"/>
		<path style="fill:#7383BF;" d="M186.733,474.453c-5.12,0-8.533-3.413-8.533-8.533v-8.533c0-5.12,3.413-8.533,8.533-8.533
			c5.12,0,8.533,3.413,8.533,8.533v8.533C195.267,471.04,191.853,474.453,186.733,474.453z M186.733,433.493
			c-5.12,0-8.533-3.413-8.533-8.533v-8.533c0-5.12,3.413-8.533,8.533-8.533c5.12,0,8.533,3.413,8.533,8.533v8.533
			C195.267,430.08,191.853,433.493,186.733,433.493z M186.733,392.533c-5.12,0-8.533-3.413-8.533-8.533v-8.533
			c0-5.12,3.413-8.533,8.533-8.533c5.12,0,8.533,3.413,8.533,8.533V384C195.267,388.267,191.853,392.533,186.733,392.533z
			 M186.733,350.72c-5.12,0-8.533-3.413-8.533-8.533v-8.533c0-5.12,3.413-8.533,8.533-8.533c5.12,0,8.533,3.413,8.533,8.533v8.533
			C195.267,347.307,191.853,350.72,186.733,350.72z M186.733,309.76c-5.12,0-8.533-3.413-8.533-8.533v-8.533
			c0-5.12,3.413-8.533,8.533-8.533c5.12,0,8.533,3.413,8.533,8.533v8.533C195.267,306.347,191.853,309.76,186.733,309.76z
			 M186.733,268.8c-5.12,0-8.533-3.413-8.533-8.533v-8.533c0-5.12,3.413-8.533,8.533-8.533c5.12,0,8.533,3.413,8.533,8.533v8.533
			C195.267,264.533,191.853,268.8,186.733,268.8z M186.733,227.84c-5.12,0-8.533-3.413-8.533-8.533v-8.533
			c0-5.12,3.413-8.533,8.533-8.533c5.12,0,8.533,3.413,8.533,8.533v8.533C195.267,223.573,191.853,227.84,186.733,227.84z
			 M186.733,186.027c-5.12,0-8.533-3.413-8.533-8.533v-8.533c0-5.12,3.413-8.533,8.533-8.533c5.12,0,8.533,3.413,8.533,8.533v8.533
			C195.267,182.613,191.853,186.027,186.733,186.027z M186.733,145.067c-5.12,0-8.533-3.413-8.533-8.533V128
			c0-5.12,3.413-8.533,8.533-8.533c5.12,0,8.533,3.413,8.533,8.533v8.533C195.267,140.8,191.853,145.067,186.733,145.067z
			 M186.733,104.107c-5.12,0-8.533-3.413-8.533-8.533V87.04c0-5.12,3.413-8.533,8.533-8.533c5.12,0,8.533,3.413,8.533,8.533v8.533
			C195.267,99.84,191.853,104.107,186.733,104.107z M186.733,62.293c-5.12,0-8.533-3.413-8.533-8.533v-8.533
			c0-5.12,3.413-8.533,8.533-8.533c5.12,0,8.533,3.413,8.533,8.533v8.533C195.267,58.88,191.853,62.293,186.733,62.293z"/>
		<path style="fill:#7383BF;" d="M323.267,471.04c-5.12,0-8.533-3.413-8.533-8.533v-8.533c0-5.12,3.413-8.533,8.533-8.533
			c5.12,0,8.533,3.413,8.533,8.533v8.533C331.8,467.627,328.387,471.04,323.267,471.04z M323.267,430.08
			c-5.12,0-8.533-3.413-8.533-8.533v-8.533c0-5.12,3.413-8.533,8.533-8.533c5.12,0,8.533,3.413,8.533,8.533v8.533
			C331.8,426.667,328.387,430.08,323.267,430.08z M323.267,389.12c-5.12,0-8.533-3.413-8.533-8.533v-8.533
			c0-5.12,3.413-8.533,8.533-8.533c5.12,0,8.533,3.413,8.533,8.533v8.533C331.8,384.853,328.387,389.12,323.267,389.12z
			 M323.267,347.307c-5.12,0-8.533-3.413-8.533-8.533v-8.533c0-5.12,3.413-8.533,8.533-8.533c5.12,0,8.533,3.413,8.533,8.533v8.533
			C331.8,343.893,328.387,347.307,323.267,347.307z M323.267,306.347c-5.12,0-8.533-3.413-8.533-8.533v-8.533
			c0-5.12,3.413-8.533,8.533-8.533c5.12,0,8.533,3.413,8.533,8.533v8.533C331.8,302.933,328.387,306.347,323.267,306.347z
			 M323.267,265.387c-5.12,0-8.533-3.413-8.533-8.533v-8.533c0-5.12,3.413-8.533,8.533-8.533c5.12,0,8.533,3.413,8.533,8.533v8.533
			C331.8,261.12,328.387,265.387,323.267,265.387z M323.267,224.427c-5.12,0-8.533-3.413-8.533-8.533v-8.533
			c0-5.12,3.413-8.533,8.533-8.533c5.12,0,8.533,3.413,8.533,8.533v8.533C331.8,220.16,328.387,224.427,323.267,224.427z
			 M323.267,182.613c-5.12,0-8.533-3.413-8.533-8.533v-8.533c0-5.12,3.413-8.533,8.533-8.533c5.12,0,8.533,3.413,8.533,8.533v8.533
			C331.8,179.2,328.387,182.613,323.267,182.613z M323.267,141.653c-5.12,0-8.533-3.413-8.533-8.533v-8.533
			c0-5.12,3.413-8.533,8.533-8.533c5.12,0,8.533,3.413,8.533,8.533v8.533C331.8,137.387,328.387,141.653,323.267,141.653z
			 M323.267,100.693c-5.12,0-8.533-3.413-8.533-8.533v-8.533c0-5.12,3.413-8.533,8.533-8.533c5.12,0,8.533,3.413,8.533,8.533v8.533
			C331.8,96.427,328.387,100.693,323.267,100.693z M323.267,58.88c-5.12,0-8.533-3.413-8.533-8.533v-8.533
			c0-5.12,3.413-8.533,8.533-8.533c5.12,0,8.533,3.413,8.533,8.533v8.533C331.8,55.467,328.387,58.88,323.267,58.88z"/>
		<path style="fill:#7383BF;" d="M186.733,21.333c-5.12,0-8.533-3.413-8.533-8.533V0H191c5.12,0,8.533,3.413,8.533,8.533
			c0,3.413-1.707,6.827-5.12,7.68C193.56,19.627,190.147,21.333,186.733,21.333z"/>
		<path style="fill:#7383BF;" d="M288.28,17.067h-9.387c-5.12,0-8.533-3.413-8.533-8.533S273.773,0,278.893,0h9.387
			c5.12,0,8.533,3.413,8.533,8.533S293.4,17.067,288.28,17.067z M239.64,17.067h-9.387c-5.12,0-8.533-3.413-8.533-8.533
			S225.133,0,230.253,0h9.387c5.12,0,8.533,3.413,8.533,8.533S244.76,17.067,239.64,17.067z"/>
		<path style="fill:#7383BF;" d="M331.8,21.333c-3.413,0-6.827-1.707-7.68-5.12c-2.56-1.707-5.12-4.267-5.12-7.68
			C319,3.413,322.413,0,327.533,0h12.8v12.8C340.333,17.92,336.92,21.333,331.8,21.333z"/>
		<path style="fill:#7383BF;" d="M331.8,474.453c-5.12,0-8.533-3.413-8.533-8.533v-8.533c0-5.12,3.413-8.533,8.533-8.533
			s8.533,3.413,8.533,8.533v8.533C340.333,471.04,336.92,474.453,331.8,474.453z M331.8,433.493c-5.12,0-8.533-3.413-8.533-8.533
			v-8.533c0-5.12,3.413-8.533,8.533-8.533s8.533,3.413,8.533,8.533v8.533C340.333,430.08,336.92,433.493,331.8,433.493z
			 M331.8,392.533c-5.12,0-8.533-3.413-8.533-8.533v-8.533c0-5.12,3.413-8.533,8.533-8.533s8.533,3.413,8.533,8.533V384
			C340.333,388.267,336.92,392.533,331.8,392.533z M331.8,350.72c-5.12,0-8.533-3.413-8.533-8.533v-8.533
			c0-5.12,3.413-8.533,8.533-8.533s8.533,3.413,8.533,8.533v8.533C340.333,347.307,336.92,350.72,331.8,350.72z M331.8,309.76
			c-5.12,0-8.533-3.413-8.533-8.533v-8.533c0-5.12,3.413-8.533,8.533-8.533s8.533,3.413,8.533,8.533v8.533
			C340.333,306.347,336.92,309.76,331.8,309.76z M331.8,268.8c-5.12,0-8.533-3.413-8.533-8.533v-8.533
			c0-5.12,3.413-8.533,8.533-8.533s8.533,3.413,8.533,8.533v8.533C340.333,264.533,336.92,268.8,331.8,268.8z M331.8,226.987
			c-5.12,0-8.533-3.413-8.533-8.533v-8.533c0-5.12,3.413-8.533,8.533-8.533s8.533,3.413,8.533,8.533v8.533
			C340.333,223.573,336.92,226.987,331.8,226.987z M331.8,186.027c-5.12,0-8.533-3.413-8.533-8.533v-8.533
			c0-5.12,3.413-8.533,8.533-8.533s8.533,3.413,8.533,8.533v8.533C340.333,182.613,336.92,186.027,331.8,186.027z M331.8,145.067
			c-5.12,0-8.533-3.413-8.533-8.533V128c0-5.12,3.413-8.533,8.533-8.533s8.533,3.413,8.533,8.533v8.533
			C340.333,140.8,336.92,145.067,331.8,145.067z M331.8,104.107c-5.12,0-8.533-3.413-8.533-8.533V87.04
			c0-5.12,3.413-8.533,8.533-8.533s8.533,3.413,8.533,8.533v8.533C340.333,99.84,336.92,104.107,331.8,104.107z M331.8,62.293
			c-5.12,0-8.533-3.413-8.533-8.533v-8.533c0-5.12,3.413-8.533,8.533-8.533s8.533,3.413,8.533,8.533v8.533
			C340.333,58.88,336.92,62.293,331.8,62.293z"/>
	</g>
	<g>
		<path style="fill:#231317;" d="M340.333,512h-12.8c-5.12,0-8.533-3.413-8.533-8.533c0-3.413,1.707-6.827,5.12-7.68
			c1.707-2.56,4.267-5.12,7.68-5.12c5.12,0,8.533,3.413,8.533,8.533V512z"/>
		<path style="fill:#231317;" d="M296.813,512h-7.68c-5.12,0-8.533-3.413-8.533-8.533c0-5.12,3.413-8.533,8.533-8.533h7.68
			c5.12,0,8.533,3.413,8.533,8.533C305.347,508.587,301.933,512,296.813,512z M258.413,512h-6.827c-5.12,0-8.533-3.413-8.533-8.533
			c0-5.12,3.413-8.533,8.533-8.533h7.68c5.12,0,8.533,3.413,8.533,8.533C267.8,508.587,263.533,512,258.413,512z M220.867,512h-7.68
			c-5.12,0-8.533-3.413-8.533-8.533c0-5.12,3.413-8.533,8.533-8.533h7.68c5.12,0,8.533,3.413,8.533,8.533
			C229.4,508.587,225.133,512,220.867,512z"/>
		<path style="fill:#231317;" d="M182.467,512h-12.8v-12.8c0-5.12,3.413-8.533,8.533-8.533c3.413,0,6.827,1.707,7.68,5.12
			c2.56,1.707,5.12,4.267,5.12,7.68C191,508.587,187.587,512,182.467,512z"/>
		<path style="fill:#231317;" d="M178.2,474.453c-5.12,0-8.533-3.413-8.533-8.533v-8.533c0-5.12,3.413-8.533,8.533-8.533
			c5.12,0,8.533,3.413,8.533,8.533v8.533C186.733,471.04,183.32,474.453,178.2,474.453z M178.2,433.493
			c-5.12,0-8.533-3.413-8.533-8.533v-8.533c0-5.12,3.413-8.533,8.533-8.533c5.12,0,8.533,3.413,8.533,8.533v8.533
			C186.733,430.08,183.32,433.493,178.2,433.493z M178.2,392.533c-5.12,0-8.533-3.413-8.533-8.533v-8.533
			c0-5.12,3.413-8.533,8.533-8.533c5.12,0,8.533,3.413,8.533,8.533V384C186.733,388.267,183.32,392.533,178.2,392.533z
			 M178.2,350.72c-5.12,0-8.533-3.413-8.533-8.533v-8.533c0-5.12,3.413-8.533,8.533-8.533c5.12,0,8.533,3.413,8.533,8.533v8.533
			C186.733,347.307,183.32,350.72,178.2,350.72z M178.2,309.76c-5.12,0-8.533-3.413-8.533-8.533v-8.533
			c0-5.12,3.413-8.533,8.533-8.533c5.12,0,8.533,3.413,8.533,8.533v8.533C186.733,306.347,183.32,309.76,178.2,309.76z M178.2,268.8
			c-5.12,0-8.533-3.413-8.533-8.533v-8.533c0-5.12,3.413-8.533,8.533-8.533c5.12,0,8.533,3.413,8.533,8.533v8.533
			C186.733,264.533,183.32,268.8,178.2,268.8z M178.2,227.84c-5.12,0-8.533-3.413-8.533-8.533v-8.533
			c0-5.12,3.413-8.533,8.533-8.533c5.12,0,8.533,3.413,8.533,8.533v8.533C186.733,223.573,183.32,227.84,178.2,227.84z
			 M178.2,186.027c-5.12,0-8.533-3.413-8.533-8.533v-8.533c0-5.12,3.413-8.533,8.533-8.533c5.12,0,8.533,3.413,8.533,8.533v8.533
			C186.733,182.613,183.32,186.027,178.2,186.027z M178.2,145.067c-5.12,0-8.533-3.413-8.533-8.533V128
			c0-5.12,3.413-8.533,8.533-8.533c5.12,0,8.533,3.413,8.533,8.533v8.533C186.733,140.8,183.32,145.067,178.2,145.067z
			 M178.2,104.107c-5.12,0-8.533-3.413-8.533-8.533V87.04c0-5.12,3.413-8.533,8.533-8.533c5.12,0,8.533,3.413,8.533,8.533v8.533
			C186.733,99.84,183.32,104.107,178.2,104.107z M178.2,62.293c-5.12,0-8.533-3.413-8.533-8.533v-8.533
			c0-5.12,3.413-8.533,8.533-8.533c5.12,0,8.533,3.413,8.533,8.533v8.533C186.733,58.88,183.32,62.293,178.2,62.293z"/>
		<path style="fill:#231317;" d="M178.2,21.333c-5.12,0-8.533-3.413-8.533-8.533V0h12.8C187.587,0,191,3.413,191,8.533
			c0,3.413-1.707,6.827-5.12,7.68C185.027,19.627,181.613,21.333,178.2,21.333z"/>
		<path style="fill:#231317;" d="M296.813,17.067h-7.68c-5.12,0-8.533-3.413-8.533-8.533S284.013,0,289.133,0h7.68
			c5.12,0,8.533,3.413,8.533,8.533S301.933,17.067,296.813,17.067z M258.413,17.067h-6.827c-5.12,0-8.533-3.413-8.533-8.533
			S246.467,0,251.587,0h7.68c5.12,0,8.533,3.413,8.533,8.533S263.533,17.067,258.413,17.067z M220.867,17.067h-7.68
			c-5.12,0-8.533-3.413-8.533-8.533S208.067,0,213.187,0h7.68c5.12,0,8.533,3.413,8.533,8.533S225.133,17.067,220.867,17.067z"/>
		<path style="fill:#231317;" d="M331.8,21.333c-3.413,0-6.827-1.707-7.68-5.12c-2.56-1.707-5.12-4.267-5.12-7.68
			C319,3.413,322.413,0,327.533,0h12.8v12.8C340.333,17.92,336.92,21.333,331.8,21.333z"/>
		<path style="fill:#231317;" d="M331.8,474.453c-5.12,0-8.533-3.413-8.533-8.533v-8.533c0-5.12,3.413-8.533,8.533-8.533
			s8.533,3.413,8.533,8.533v8.533C340.333,471.04,336.92,474.453,331.8,474.453z M331.8,433.493c-5.12,0-8.533-3.413-8.533-8.533
			v-8.533c0-5.12,3.413-8.533,8.533-8.533s8.533,3.413,8.533,8.533v8.533C340.333,430.08,336.92,433.493,331.8,433.493z
			 M331.8,392.533c-5.12,0-8.533-3.413-8.533-8.533v-8.533c0-5.12,3.413-8.533,8.533-8.533s8.533,3.413,8.533,8.533V384
			C340.333,388.267,336.92,392.533,331.8,392.533z M331.8,350.72c-5.12,0-8.533-3.413-8.533-8.533v-8.533
			c0-5.12,3.413-8.533,8.533-8.533s8.533,3.413,8.533,8.533v8.533C340.333,347.307,336.92,350.72,331.8,350.72z M331.8,309.76
			c-5.12,0-8.533-3.413-8.533-8.533v-8.533c0-5.12,3.413-8.533,8.533-8.533s8.533,3.413,8.533,8.533v8.533
			C340.333,306.347,336.92,309.76,331.8,309.76z M331.8,268.8c-5.12,0-8.533-3.413-8.533-8.533v-8.533
			c0-5.12,3.413-8.533,8.533-8.533s8.533,3.413,8.533,8.533v8.533C340.333,264.533,336.92,268.8,331.8,268.8z M331.8,226.987
			c-5.12,0-8.533-3.413-8.533-8.533v-8.533c0-5.12,3.413-8.533,8.533-8.533s8.533,3.413,8.533,8.533v8.533
			C340.333,223.573,336.92,226.987,331.8,226.987z M331.8,186.027c-5.12,0-8.533-3.413-8.533-8.533v-8.533
			c0-5.12,3.413-8.533,8.533-8.533s8.533,3.413,8.533,8.533v8.533C340.333,182.613,336.92,186.027,331.8,186.027z M331.8,145.067
			c-5.12,0-8.533-3.413-8.533-8.533V128c0-5.12,3.413-8.533,8.533-8.533s8.533,3.413,8.533,8.533v8.533
			C340.333,140.8,336.92,145.067,331.8,145.067z M331.8,104.107c-5.12,0-8.533-3.413-8.533-8.533V87.04
			c0-5.12,3.413-8.533,8.533-8.533s8.533,3.413,8.533,8.533v8.533C340.333,99.84,336.92,104.107,331.8,104.107z M331.8,62.293
			c-5.12,0-8.533-3.413-8.533-8.533v-8.533c0-5.12,3.413-8.533,8.533-8.533s8.533,3.413,8.533,8.533v8.533
			C340.333,58.88,336.92,62.293,331.8,62.293z"/>
	</g>
</g>
<g>
</g>
<g>
</g>
<g>
</g>
<g>
</g>
<g>
</g>
<g>
</g>
<g>
</g>
<g>
</g>
<g>
</g>
<g>
</g>
<g>
</g>
<g>
</g>
<g>
</g>
<g>
</g>
<g>
</g>
</svg>
